<svg xmlns="http://www.w3.org/2000/svg" xmlns:xlink="http://www.w3.org/1999/xlink" viewBox="0 0 155.64 105.74">
  <defs>
    <style>
      .cls-1{fill:#fab71b;}.cls-2{fill:#00c8d9;}.cls-3{fill:#f9b71b;}.cls-4{fill:#e1aa98;}.cls-5{fill:#f5cabb;}.cls-6{fill:#bb7339;}.cls-7{fill:#004a61;}.cls-8{fill:#fff;}.cls-9{fill:none;stroke:#f62459;stroke-miterlimit:10;}.cls-10{fill:#8d5049;}.cls-11{fill:#a9645a;}.cls-12{fill:#251f1a;}.cls-13{fill:url(#linear-gradient);}.cls-14{fill:url(#linear-gradient-2);}.cls-15{fill:#bf8e69;}.cls-16{fill:#d19039;}.cls-17{fill:#e5e9ef;}.cls-18{fill:#f1f2f4;}.cls-19{fill:#1eb8b2;}.cls-20{fill:#f7ffff;}
    </style>
    <linearGradient id="linear-gradient" x1="13.33" y1="13.08" x2="15.25" y2="13.08" gradientUnits="userSpaceOnUse">
      <stop offset="0" stop-color="#6a322a"/>
      <stop offset="1" stop-color="#995447"/>
    </linearGradient>
    <linearGradient id="linear-gradient-2" x1="25.78" y1="27.91" x2="27.69" y2="27.91" xlink:href="#linear-gradient"/>
  </defs>
  <title>event-diagram-bskp</title>
  <g id="Layer_2" data-name="Layer 2">
    <g id="object">
      <polygon class="cls-1" points="55.65 32.03 40.76 27.73 40.86 27.4 55.74 31.7 55.65 32.03"/>
      <polygon class="cls-1"
               points="42.31 26.55 42.47 26.86 40.94 27.6 41.81 29.04 41.51 29.21 40.45 27.46 42.31 26.55"/>
      <ellipse class="cls-2" cx="78.21" cy="38.73" rx="18.2" ry="17.79"/>
      <path class="cls-3"
            d="M79.35,46.86H77.93a8.85,8.85,0,0,0-8.75,7.31A18.53,18.53,0,0,0,88,53.71,8.86,8.86,0,0,0,79.35,46.86Z"/>
      <path class="cls-4"
            d="M76,43.76l-.09.23a4.15,4.15,0,0,0-.29,1.52v3a2.71,2.71,0,0,0,2.74,2.68h.06a2.71,2.71,0,0,0,2.74-2.68V45.13a2.45,2.45,0,0,0-.14-.8l-.18-.5A2.6,2.6,0,0,0,76,43.76Z"/>
      <path class="cls-5"
            d="M78.49,46.73h-.15a7.47,7.47,0,0,1-7.55-7.37l-.17-5.21a6.75,6.75,0,0,1,6.82-6.67H79a6.74,6.74,0,0,1,6.82,6.66L86,39.35A7.45,7.45,0,0,1,78.49,46.73Z"/>
      <path class="cls-5"
            d="M71.36,40a1.85,1.85,0,0,1-2.56.38,1.78,1.78,0,0,1-.39-2.52A1.87,1.87,0,0,1,71,37.44,1.77,1.77,0,0,1,71.36,40Z"/>
      <path class="cls-5"
            d="M85.06,37.81a1.87,1.87,0,0,1,2.57-.37A1.77,1.77,0,0,1,88,40a1.86,1.86,0,0,1-2.57.38A1.78,1.78,0,0,1,85.06,37.81Z"/>
      <path class="cls-6"
            d="M71.61,32.37a.78.78,0,0,1,.78-.77h0a1.1,1.1,0,0,0,1.11-1.09v-.1a1.67,1.67,0,0,0-3.33-.06v6.26a1.62,1.62,0,0,0,1.1,1.52.25.25,0,0,0,.34-.22Z"/>
      <path class="cls-6"
            d="M85.18,32.16a.77.77,0,0,0-.78-.76h0a1.11,1.11,0,0,1-1.12-1.09V30.2a1.69,1.69,0,0,1,1.41-1.67,1.66,1.66,0,0,1,1.92,1.61v6.47a1.62,1.62,0,0,1-1.09,1.52.24.24,0,0,1-.34-.22Z"/>
      <path class="cls-6"
            d="M80.45,25.17h-.38a11.07,11.07,0,0,0-3.65.63l-2.22.8a1.52,1.52,0,0,1-2-1,9.62,9.62,0,0,0-.1,1.32,4.55,4.55,0,0,0,4.6,4.49h7.42a1.32,1.32,0,0,0,1.34-1.31h0A5,5,0,0,0,80.45,25.17Z"/>
      <path class="cls-7"
            d="M78.23,61.44V61.1c.34,0,.68,0,1,0l0,.34Zm-1,0c-.35,0-.7,0-1-.07l0-.33c.33,0,.68,0,1,.06Zm3.12-.07,0-.34c.34,0,.68-.06,1-.11l0,.34Zm-5.2-.11c-.34,0-.69-.09-1-.16l.06-.33,1,.16Zm7.26-.16-.06-.33c.34-.06.68-.13,1-.21l.07.33C83.06,61,82.71,61,82.37,61.08Zm-9.31-.2c-.34-.07-.68-.16-1-.25l.09-.32c.33.09.66.17,1,.24Zm11.35-.25-.1-.33,1-.29.1.32Zm-13.36-.29q-.49-.15-1-.33l.13-.32c.32.12.64.23,1,.33ZM86.39,60l-.13-.32.95-.37.14.31Zm-17.3-.37-1-.43.15-.3.94.41ZM88.3,59.2l-.15-.31.91-.46.16.3Zm-21.09-.46-.9-.5.17-.29.9.49Zm22.92-.51L90,57.94l.87-.53.19.28Zm-24.71-.54c-.29-.18-.57-.38-.85-.58l.2-.27.84.57Zm26.44-.58-.2-.28c.27-.19.55-.39.82-.6l.21.26ZM63.74,56.5c-.27-.21-.54-.43-.8-.66l.22-.25.79.64Zm29.75-.66-.23-.26c.26-.22.51-.44.76-.68l.24.25C94,55.38,93.75,55.62,93.49,55.84Zm-31.32-.69c-.25-.23-.5-.47-.74-.72l.25-.23c.24.24.48.48.73.71ZM95,54.43l-.25-.24c.23-.24.47-.48.69-.74l.26.23Zm-34.27-.75c-.23-.25-.46-.51-.67-.78l.27-.21c.21.26.43.52.66.77Zm35.64-.78-.27-.22c.21-.26.42-.52.62-.79l.28.19C96.8,52.36,96.59,52.63,96.37,52.9Zm-36.94-.81c-.21-.27-.41-.55-.6-.83l.29-.19c.19.28.38.55.59.82Zm38.17-.84-.29-.19c.19-.28.37-.56.55-.85l.29.17C98,50.68,97.79,51,97.6,51.25ZM58.28,50.4c-.18-.29-.36-.59-.52-.89l.31-.16c.16.29.33.59.5.87Zm40.39-.9-.31-.16c.17-.3.32-.6.47-.9l.31.15Zm-41.38-.89c-.15-.31-.3-.62-.43-.93l.31-.13c.14.31.28.61.43.91Zm42.29-1-.32-.13c.13-.31.26-.62.38-.94l.33.12Zm-43.11-.92c-.13-.32-.24-.64-.35-1l.33-.11c.11.32.22.64.34.95Zm43.84-1-.33-.11q.17-.48.3-1l.33.09C100.52,45.1,100.42,45.42,100.31,45.75Zm-44.49-1c-.09-.33-.18-.66-.25-1l.33-.07c.08.32.16.65.25,1Zm45-1-.33-.07c.07-.33.14-.66.2-1l.34.06C101,43.12,100.94,43.45,100.86,43.78Zm-45.5-1c-.07-.34-.12-.67-.17-1l.35-.05c0,.34.1.67.16,1Zm45.87-1-.34-.05c0-.33.08-.66.11-1l.35,0Q101.31,41.27,101.23,41.78Zm-46.15-1c0-.34-.06-.68-.07-1h.34c0,.33,0,.66.07,1Zm46.34-1-.35,0c0-.33,0-.66,0-1v-.06h.35v.06C101.44,39.07,101.43,39.41,101.42,39.75ZM55,38.76v0c0-.33,0-.66,0-1l.35,0c0,.32,0,.64,0,1Zm46.09-1.1c0-.33,0-.67-.07-1l.34,0c0,.34.06.68.07,1Zm-45.65-.9-.35,0c0-.34.07-.68.11-1l.35,0C55.48,36.09,55.45,36.42,55.42,36.76Zm45.46-1.1c0-.33-.1-.66-.16-1l.34-.06c.06.33.12.67.16,1Zm-45.19-.89-.35-.06.21-1,.34.07C55.81,34.11,55.75,34.44,55.69,34.77Zm44.82-1.08c-.08-.32-.16-.65-.25-1l.33-.09c.09.32.18.66.26,1Zm-44.37-.88-.34-.09c.09-.32.19-.65.3-1l.33.11C56.33,32.17,56.23,32.49,56.14,32.81ZM100,31.76c-.11-.32-.22-.64-.34-1l.32-.12c.12.32.24.64.35,1ZM56.77,30.9l-.33-.12.39-1,.32.13C57,30.27,56.89,30.59,56.77,30.9Zm42.46-1c-.13-.3-.27-.61-.42-.91l.31-.15c.15.31.3.62.43.93Zm-41.65-.83-.32-.15c.15-.31.31-.61.48-.91l.3.16C57.88,28.44,57.72,28.75,57.58,29.05Zm40.76-1q-.24-.43-.51-.87l.3-.17c.18.29.35.58.51.88Zm-39.79-.8-.3-.18c.18-.29.37-.58.56-.86l.29.19C58.91,26.7,58.73,27,58.55,27.28Zm38.73-.92c-.18-.27-.38-.55-.58-.82l.28-.2.59.84Zm-37.6-.76-.28-.2c.2-.27.42-.55.63-.81l.27.21C60.09,25.06,59.88,25.33,59.68,25.6Zm36.39-.86c-.21-.25-.43-.51-.66-.76l.26-.23c.23.26.46.52.67.78ZM61,24l-.26-.22c.23-.26.46-.51.7-.76l.25.24Zm33.76-.79c-.24-.24-.48-.48-.73-.71l.24-.25L95,23Zm-32.34-.66-.24-.25.76-.69.23.26C62.88,22.12,62.62,22.35,62.38,22.58Zm30.85-.73c-.25-.22-.52-.43-.79-.64l.22-.27.8.66Zm-29.31-.6L63.7,21l.83-.62.2.28C64.46,20.84,64.19,21.05,63.92,21.25Zm27.71-.65c-.28-.19-.56-.39-.85-.57l.19-.28c.29.18.58.38.86.58Zm-26-.53-.19-.28c.28-.19.58-.37.88-.54l.17.29Zm24.33-.57L89,19l.16-.3c.3.16.61.33.91.51ZM67.33,19l-.16-.3c.3-.16.61-.31.92-.46l.16.3C67.94,18.73,67.63,18.88,67.33,19Zm20.77-.49c-.31-.15-.62-.29-.94-.42l.14-.31c.32.13.64.28,1,.42Zm-18.92-.38L69,17.86c.31-.14.64-.26,1-.38l.13.31Zm17-.41c-.33-.12-.65-.23-1-.33l.11-.32q.5.15,1,.33Zm-15.12-.3-.1-.32q.49-.16,1-.3l.1.33C71.75,17.26,71.42,17.35,71.09,17.46Zm13.16-.32c-.33-.08-.66-.17-1-.24l.08-.33c.34.07.68.16,1,.25Zm-11.18-.22L73,16.59l1-.2.06.33Zm9.18-.22-1-.15,0-.34,1,.16Zm-7.16-.14,0-.33c.35-.05.69-.09,1-.12l0,.34Zm5.12-.12q-.51,0-1-.06V16c.35,0,.7,0,1,.06Zm-3.07-.06,0-.34,1,0v.34C77.82,16.36,77.48,16.36,77.14,16.38Z"/>
      <path class="cls-7"
            d="M50.44,44.65l-4.83,1.53a.61.61,0,0,0-.4.78l2.93,8.84a.64.64,0,0,0,.79.41l4.83-1.53a.61.61,0,0,0,.39-.78l-2.92-8.84A.64.64,0,0,0,50.44,44.65Z"/>
      <polygon class="cls-8" points="45.85 47.09 48.3 54.49 53.24 52.93 50.79 45.53 45.85 47.09"/>
      <path class="cls-8"
            d="M51.34,54.33a.43.43,0,0,1-.28.55.45.45,0,0,1-.56-.28.44.44,0,0,1,.28-.56A.45.45,0,0,1,51.34,54.33Z"/>
      <polygon class="cls-1" points="100.08 32.03 99.99 31.7 114.87 27.4 114.97 27.73 100.08 32.03"/>
      <polygon class="cls-1"
               points="113.41 26.55 113.26 26.86 114.79 27.6 113.92 29.04 114.22 29.21 115.28 27.46 113.41 26.55"/>
      <polygon class="cls-1" points="110 67.52 95.16 54.21 95.4 53.96 110.23 67.27 110 67.52"/>
      <polygon class="cls-1"
               points="108.37 67.91 108.32 67.58 110.01 67.32 109.62 65.69 109.96 65.62 110.43 67.6 108.37 67.91"/>
      <polygon class="cls-1" points="48.04 68.63 47.79 68.4 61.4 53.89 61.65 54.12 48.04 68.63"/>
      <polygon class="cls-1"
               points="47.39 66.81 47.73 66.76 47.99 68.41 49.65 68.03 49.73 68.36 47.7 68.82 47.39 66.81"/>
      <path class="cls-2"
            d="M65.63,15.74l-9.34,1.45a.75.75,0,0,1-.86-.61l-.87-5.38a.73.73,0,0,1,.62-.84l9.34-1.44a.74.74,0,0,1,.86.61l.87,5.37A.74.74,0,0,1,65.63,15.74Z"/>
      <polygon class="cls-7" points="60.54 13.47 55.04 10.97 55.19 10.66 60.47 13.07 64.61 9.2 64.85 9.45 60.54 13.47"/>
      <path class="cls-1"
            d="M39.54,45.75l-3.61,3.84a.77.77,0,0,1-1.07,0l-2.14-1.92a.73.73,0,0,1,0-1l3.62-3.84a.75.75,0,0,1,1.06,0l2.14,1.93A.7.7,0,0,1,39.54,45.75Z"/>
      <polygon class="cls-7"
               points="36.34 46.37 32.66 47.22 32.61 47.01 36.15 46.19 36.65 42.73 36.86 42.76 36.34 46.37"/>
      <ellipse class="cls-9" cx="20.72" cy="20.27" rx="20.22" ry="19.77"/>
      <path class="cls-3" d="M18.57,33.45v-1.2A3.26,3.26,0,0,0,15.28,29h-.52a3.26,3.26,0,0,0-3.29,3.21v1.2Z"/>
      <path class="cls-10"
            d="M14.06,28.09l0,.08a1.54,1.54,0,0,0-.1.56v1.13a1,1,0,0,0,1,1h0a1,1,0,0,0,1-1V28.59a.93.93,0,0,0-.05-.29l-.07-.19A1,1,0,0,0,14.06,28.09Z"/>
      <path class="cls-11"
            d="M15,29.19h-.05a2.76,2.76,0,0,1-2.8-2.73l-.07-2.14a2.5,2.5,0,0,1,2.53-2.47h.59a2.5,2.5,0,0,1,2.53,2.47l.07,2.13A2.77,2.77,0,0,1,15,29.19Z"/>
      <path d="M17,23.28l.73,1.86,0-1a2.5,2.5,0,0,0-2.53-2.47h-.59a2.5,2.5,0,0,0-2.53,2.47l0,.81.73-1.69Z"/>
      <path class="cls-11"
            d="M12.34,26.67a.68.68,0,0,1-.95.14.65.65,0,0,1-.15-.93.7.7,0,0,1,1-.14A.66.66,0,0,1,12.34,26.67Z"/>
      <path class="cls-11"
            d="M17.41,25.88a.7.7,0,0,1,1-.14.66.66,0,0,1,.14.93.68.68,0,0,1-1,.14A.65.65,0,0,1,17.41,25.88Z"/>
      <path
        d="M12.12,23.65a1.93,1.93,0,0,1,1.58-1.52c1.3-.14,2.78-.34,3.77.91a3.34,3.34,0,0,1,.25,1.5l-.58-1.28-.83-.12L12.72,23l-.56,1.66Z"/>
      <path class="cls-12"
            d="M12.14,8a1.67,1.67,0,0,0-.74,1.18c0,.48-.3,2.71-.48,4a1.09,1.09,0,0,0,.76,1.18l3,.93,2.46-.89a1.08,1.08,0,0,0,.7-1.23l-.95-4.6-1.34-.39Z"/>
      <path class="cls-2" d="M17.7,18.64V17.52a3.06,3.06,0,0,0-3.09-3h-.5a3.06,3.06,0,0,0-3.08,3v1.12Z"/>
      <path class="cls-4"
            d="M13.46,12.65l0,.08a1.39,1.39,0,0,0-.1.53v1.06a.94.94,0,0,0,.95.93h0a.94.94,0,0,0,.95-.93V13.13a.66.66,0,0,0-.05-.28l-.06-.17A.9.9,0,0,0,13.46,12.65Z"/>
      <path class="cls-13"
            d="M15.25,13.67v-.82a.94.94,0,0,0-.95-.93h0a.94.94,0,0,0-.95.93v1.09a1.49,1.49,0,0,0,.74.3A1.48,1.48,0,0,0,15.25,13.67Z"/>
      <path class="cls-5"
            d="M14.38,14.54h-.06A2.59,2.59,0,0,1,11.7,12V9.85a2.35,2.35,0,0,1,2.37-2.33h.56A2.35,2.35,0,0,1,17,9.84V12A2.59,2.59,0,0,1,14.38,14.54Z"/>
      <path class="cls-12"
            d="M15.32,9.76c-.66.33-1.87.79-1.87.79s.21-.56.27-.83A22.64,22.64,0,0,0,11.66,11,10.64,10.64,0,0,1,11.43,9a2.4,2.4,0,0,1,1.14-1.67,2.76,2.76,0,0,1,1.21-.21,5.62,5.62,0,0,1,1.64.11c.5.12,1.37.51,1.25,1.11A2.51,2.51,0,0,1,15.32,9.76Z"/>
      <path class="cls-12"
            d="M16.91,10.84c.06.09.13.18.22.18a.21.21,0,0,0,.2-.15.89.89,0,0,0,0-.28,12.76,12.76,0,0,0-.18-1.87c-.23-.71-1.35-.87-1.32,0a2.75,2.75,0,0,0,.4,1A10.53,10.53,0,0,0,16.91,10.84Z"/>
      <path class="cls-5"
            d="M11.85,11.92a.67.67,0,0,1-.9.13.63.63,0,0,1-.13-.88.66.66,0,0,1,.89-.13A.64.64,0,0,1,11.85,11.92Z"/>
      <path class="cls-5"
            d="M16.7,11.17a.66.66,0,0,1,.89-.13.63.63,0,0,1,.13.88.66.66,0,0,1-.89.13A.63.63,0,0,1,16.7,11.17Z"/>
      <ellipse class="cls-12" cx="26.81" cy="25.31" rx="3.63" ry="3.55"/>
      <path class="cls-2" d="M30.12,33.45V32.33a3,3,0,0,0-3.07-3h-.49a3,3,0,0,0-3.07,3v1.12Z"/>
      <path class="cls-4"
            d="M25.91,27.48l0,.08a1.39,1.39,0,0,0-.1.53v1.05a.93.93,0,0,0,.94.93h0a.93.93,0,0,0,1-.93V28a.66.66,0,0,0-.05-.28l-.06-.17A.9.9,0,0,0,25.91,27.48Z"/>
      <path class="cls-12" d="M28.38,22.07a1.55,1.55,0,1,1-1.55-1.52A1.53,1.53,0,0,1,28.38,22.07Z"/>
      <path class="cls-14"
            d="M27.69,28.5v-.82a.94.94,0,0,0-1-.93h0a.94.94,0,0,0-.94.93v1.08a1.48,1.48,0,0,0,.74.31A1.49,1.49,0,0,0,27.69,28.5Z"/>
      <path class="cls-5"
            d="M26.82,29.37h-.05a2.6,2.6,0,0,1-2.62-2.56V24.69a2.33,2.33,0,0,1,2.36-2.31h.56a2.33,2.33,0,0,1,2.36,2.31v2.12A2.6,2.6,0,0,1,26.82,29.37Z"/>
      <path class="cls-12"
            d="M27.76,24.6c-.65.34-1.86.79-1.86.79s.2-.55.27-.82a23.25,23.25,0,0,0-2.06,1.31,9.36,9.36,0,0,1-.22-2.05c.18-1.41,3.44-1.9,4-1.77s1.36.52,1.25,1.11A2.5,2.5,0,0,1,27.76,24.6Z"/>
      <path class="cls-12"
            d="M29.35,25.68c0,.09.12.18.22.18s.16-.07.19-.15a.68.68,0,0,0,0-.28,12.54,12.54,0,0,0-.19-1.86c-.22-.71-1.34-.86-1.32,0a2.72,2.72,0,0,0,.41.94A9.73,9.73,0,0,0,29.35,25.68Z"/>
      <path class="cls-5"
            d="M24.3,26.75a.64.64,0,0,1-.89.13.61.61,0,0,1-.13-.87.66.66,0,0,1,.89-.13A.62.62,0,0,1,24.3,26.75Z"/>
      <path class="cls-5"
            d="M29.13,26a.66.66,0,0,1,.89-.13.62.62,0,0,1,.13.87.64.64,0,0,1-.89.13A.61.61,0,0,1,29.13,26Z"/>
      <path class="cls-3" d="M30.57,19.12V17.89a3.38,3.38,0,0,0-3.4-3.33h-.55a3.38,3.38,0,0,0-3.4,3.33v1.23Z"/>
      <path class="cls-4"
            d="M25.94,13.48l0,.09a1.62,1.62,0,0,0-.11.58v1.17a1,1,0,0,0,1.05,1h0a1,1,0,0,0,1.05-1V14a.81.81,0,0,0-.05-.31l-.07-.19A1,1,0,0,0,25.94,13.48Z"/>
      <path class="cls-5"
            d="M26.92,15.19h-.06A2.87,2.87,0,0,1,24,12.36L23.9,9.65a2.59,2.59,0,0,1,2.61-2.56h.62a2.58,2.58,0,0,1,2.61,2.56l.07,2.71A2.86,2.86,0,0,1,26.92,15.19Z"/>
      <path class="cls-15"
            d="M24.11,9.51A.73.73,0,0,1,24.36,9a.73.73,0,0,0,.26-.56V7.88a2.51,2.51,0,0,0-.72,1.77l0,1h0a.18.18,0,0,0,.19-.19Z"/>
      <path class="cls-5" d="M29.47,11a.72.72,0,0,1,1-.14.68.68,0,0,1,.15,1,.71.71,0,0,1-1,.14A.68.68,0,0,1,29.47,11Z"/>
      <path class="cls-16"
            d="M29.43,8.43a2.62,2.62,0,0,0-2.3-1.34h-.62a2.64,2.64,0,0,0-1.88.78,1.13,1.13,0,0,0,1.06.74h3.13A1.18,1.18,0,0,0,29.43,8.43Z"/>
      <path class="cls-16"
            d="M24.11,9.51A.73.73,0,0,1,24.36,9a.73.73,0,0,0,.26-.56V7.88a2.51,2.51,0,0,0-.72,1.77l0,1.06h0a.19.19,0,0,0,.19-.19Z"/>
      <path class="cls-16"
            d="M29.58,9.56A.72.72,0,0,0,29.32,9a.73.73,0,0,1-.25-.56V7.94a2.49,2.49,0,0,1,.72,1.76l0,1h0a.18.18,0,0,1-.19-.18Z"/>
      <path class="cls-5"
            d="M24.12,11.83a.7.7,0,0,1-1,.14A.67.67,0,0,1,23,11a.71.71,0,0,1,1-.14A.67.67,0,0,1,24.12,11.83Z"/>
      <ellipse class="cls-9" cx="135.57" cy="20.88" rx="19.57" ry="19.13"/>
      <path class="cls-17"
            d="M144.06,16a8.43,8.43,0,0,0-9.46-8.25,8.31,8.31,0,0,0-7.44,7.11,8.16,8.16,0,0,0,1.9,6.46A12.05,12.05,0,0,1,132,28a1.21,1.21,0,0,0,1.21,1.06H138A1.18,1.18,0,0,0,139.16,28,11.16,11.16,0,0,1,142,21.5,8.14,8.14,0,0,0,144.06,16Z"/>
      <path class="cls-1"
            d="M138.22,31.53h-5.29a1,1,0,0,1-1-1h0a1,1,0,0,1,1-1h5.29a1,1,0,0,1,1,1h0A1,1,0,0,1,138.22,31.53Z"/>
      <path class="cls-1" d="M138.22,34h-5.29a1,1,0,0,1-1-1h0a1,1,0,0,1,1-1h5.29a1,1,0,0,1,1,1h0A1,1,0,0,1,138.22,34Z"/>
      <path class="cls-1"
            d="M137.88,14.47l-.52-.08a2.91,2.91,0,0,0-.22-.51l.31-.42a.43.43,0,0,0,0-.59l-.46-.45a.47.47,0,0,0-.33-.14.44.44,0,0,0-.27.09l-.44.3a2.66,2.66,0,0,0-.53-.21l-.09-.51a.46.46,0,0,0-.46-.38h-.66a.46.46,0,0,0-.46.38l-.09.52a2.75,2.75,0,0,0-.51.21l-.43-.3a.44.44,0,0,0-.27-.09.47.47,0,0,0-.33.14l-.47.45a.46.46,0,0,0,0,.59l.32.43a2.41,2.41,0,0,0-.21.5l-.53.09a.45.45,0,0,0-.38.45v.64a.44.44,0,0,0,.38.45l.54.09a3.11,3.11,0,0,0,.21.5l-.31.42a.46.46,0,0,0,.05.59l.47.46a.51.51,0,0,0,.33.13.44.44,0,0,0,.27-.09l.44-.3a4.34,4.34,0,0,0,.5.2l.09.51a.46.46,0,0,0,.46.38h.66a.46.46,0,0,0,.46-.38l.09-.51a4.55,4.55,0,0,0,.51-.21l.43.3a.46.46,0,0,0,.27.09.45.45,0,0,0,.33-.14l.47-.45a.46.46,0,0,0,0-.59l-.31-.43a2.21,2.21,0,0,0,.21-.5l.53-.08a.46.46,0,0,0,.39-.45v-.65a.46.46,0,0,0-.39-.45Z"/>
      <path class="cls-2"
            d="M134.51,13.66a1.59,1.59,0,1,0,1.62,1.58,1.6,1.6,0,0,0-1.62-1.58Zm0,2.76a1.18,1.18,0,1,1,1.2-1.18,1.19,1.19,0,0,1-1.2,1.18Z"/>
      <path class="cls-2"
            d="M138.77,20.15l-.28-.12a1.54,1.54,0,0,0,0-.3l.23-.19a.25.25,0,0,0,.06-.32l-.19-.32a.31.31,0,0,0-.16-.12.29.29,0,0,0-.16,0l-.28.11a1.57,1.57,0,0,0-.26-.19l0-.29a.25.25,0,0,0-.19-.27l-.36-.09a.26.26,0,0,0-.3.14l-.13.27a1.67,1.67,0,0,0-.31.05l-.19-.23a.22.22,0,0,0-.13-.08.24.24,0,0,0-.2,0l-.32.18a.25.25,0,0,0-.11.31l.1.28a1.44,1.44,0,0,0-.18.25l-.3,0a.26.26,0,0,0-.27.19l-.1.35a.25.25,0,0,0,.15.3l.28.12a1.55,1.55,0,0,0,0,.31l-.23.18a.26.26,0,0,0-.05.33l.19.31a.25.25,0,0,0,.16.12.26.26,0,0,0,.15,0l.29-.11a1.08,1.08,0,0,0,.24.18l0,.29a.26.26,0,0,0,.2.27l.36.09a.25.25,0,0,0,.3-.14l.13-.27a1.76,1.76,0,0,0,.31,0l.19.22a.24.24,0,0,0,.13.09.34.34,0,0,0,.2,0l.32-.18a.26.26,0,0,0,.11-.32l-.1-.27a1.88,1.88,0,0,0,.18-.24l.3,0a.26.26,0,0,0,.28-.19l.09-.35a.25.25,0,0,0-.14-.3Z"/>
      <path class="cls-8"
            d="M137.05,19.24a.92.92,0,0,0-1.11.64.88.88,0,0,0,.65,1.09.91.91,0,0,0,1.11-.64.9.9,0,0,0-.65-1.09Zm-.4,1.51a.66.66,0,0,1-.48-.81.67.67,0,0,1,.82-.47.66.66,0,0,1,.48.8.68.68,0,0,1-.82.48Z"/>
      <ellipse class="cls-9" cx="126.36" cy="85.55" rx="20.14" ry="19.69"/>
      <ellipse class="cls-9" cx="31.27" cy="85.06" rx="19.22" ry="18.79"/>
      <path class="cls-7"
            d="M73.05,66.56H62.58a.48.48,0,0,0-.48.47v6.21a.48.48,0,0,0,.48.47H73.05a.48.48,0,0,0,.49-.47V67A.48.48,0,0,0,73.05,66.56Z"/>
      <rect class="cls-1" x="63.04" y="67.15" width="9.56" height="5.98"/>
      <path class="cls-7" d="M60.85,73.68a1.06,1.06,0,0,0,1.08,1.06H73.71a1.06,1.06,0,0,0,1.08-1.06Z"/>
      <polygon class="cls-18" points="68.71 70.37 67.05 69.43 67.05 71.31 68.71 70.37"/>
      <path class="cls-1"
            d="M97.61,70.67l-.7-.11a4.48,4.48,0,0,0-.28-.67l.41-.57a.58.58,0,0,0-.07-.78l-.62-.61a.6.6,0,0,0-.44-.18.66.66,0,0,0-.36.11l-.58.41a3.92,3.92,0,0,0-.71-.29l-.12-.68a.62.62,0,0,0-.61-.51h-.89a.62.62,0,0,0-.61.51l-.12.7a3.61,3.61,0,0,0-.68.28l-.58-.41a.64.64,0,0,0-.36-.11.6.6,0,0,0-.44.18l-.63.61a.59.59,0,0,0-.06.78l.42.58a3.27,3.27,0,0,0-.28.67l-.7.11a.61.61,0,0,0-.52.6v.87a.6.6,0,0,0,.52.59l.72.12a4,4,0,0,0,.28.67l-.41.56a.58.58,0,0,0,.07.78l.62.62a.64.64,0,0,0,.44.17.59.59,0,0,0,.36-.11l.59-.41a3.81,3.81,0,0,0,.66.27l.12.69a.61.61,0,0,0,.61.5h.89a.61.61,0,0,0,.61-.5l.12-.69a3.73,3.73,0,0,0,.68-.28l.58.41a.7.7,0,0,0,.37.11.58.58,0,0,0,.43-.18l.63-.61a.61.61,0,0,0,.07-.78l-.42-.57a3.53,3.53,0,0,0,.28-.67l.71-.12a.61.61,0,0,0,.52-.59v-.87a.61.61,0,0,0-.52-.6Z"/>
      <path class="cls-19"
            d="M93.11,69.58a2.12,2.12,0,1,0,2.16,2.12,2.14,2.14,0,0,0-2.16-2.12Zm0,3.69a1.57,1.57,0,1,1,1.6-1.57,1.58,1.58,0,0,1-1.6,1.57Z"/>
      <ellipse class="cls-17" cx="31.21" cy="85.15" rx="13.96" ry="13.65"/>
      <ellipse class="cls-2" cx="31.21" cy="85.15" rx="10.51" ry="10.28"/>
      <ellipse class="cls-1" cx="31.21" cy="85.15" rx="6.75" ry="6.6"/>
      <ellipse class="cls-18" cx="31.21" cy="85.15" rx="3.1" ry="3.03"/>
      <polygon class="cls-1" points="60.61 85.51 52.9 85.51 54.67 82.67 62.13 82.67 60.61 85.51"/>
      <polygon class="cls-2" points="60.61 85.39 52.9 85.39 54.67 88.23 62.13 88.23 60.61 85.39"/>
      <rect class="cls-7" x="31.27" y="85.26" width="29.34" height="0.25"/>
      <polygon class="cls-3"
               points="100.19 5.95 88.45 5.95 88.45 13.11 90.14 13.11 90.14 14.95 92.02 13.11 100.19 13.11 100.19 5.95"/>
      <rect class="cls-7" x="90.15" y="7.48" width="8.56" height="0.44"/>
      <rect class="cls-7" x="90.15" y="9.17" width="8.56" height="0.46"/>
      <rect class="cls-7" x="90.15" y="10.86" width="6.76" height="0.43"/>
      <path class="cls-2"
            d="M106.79,57h0a.84.84,0,0,0,.78-.92l-.5-5.26a.85.85,0,0,0-.95-.76h0a.86.86,0,0,0-.78.92l.5,5.26A.86.86,0,0,0,106.79,57Z"/>
      <path class="cls-7"
            d="M113.53,52.35l1.48.42a1,1,0,0,0,1.22-.65l.2-.68a1,1,0,0,0-.67-1.19l-1.48-.42a1,1,0,0,0-1.22.65l-.2.68A.94.94,0,0,0,113.53,52.35Z"/>
      <path class="cls-7"
            d="M103.48,49.7l1.48.42a1,1,0,0,0,1.22-.65l.2-.68a1,1,0,0,0-.67-1.2l-1.48-.42a1,1,0,0,0-1.22.66l-.2.67A1,1,0,0,0,103.48,49.7Z"/>
      <polygon class="cls-3" points="115.21 47.99 113.18 54.78 104.05 50.23 105.01 47.03 115.21 47.99"/>
      <polygon class="cls-20" points="109.36 47.44 105.01 47.03 104.05 50.23 108.04 52.22 109.36 47.44"/>
      <path class="cls-2"
            d="M112.73,56l.29.09a.43.43,0,0,0,.53-.28l2.51-8.44a.4.4,0,0,0-.28-.51l-.3-.09A.43.43,0,0,0,115,47l-2.51,8.44A.4.4,0,0,0,112.73,56Z"/>
      <polygon class="cls-7" points="117.5 48.04 117.39 47.72 120.76 46.58 120.88 46.9 117.5 48.04"/>
      <polygon class="cls-7" points="117.87 51.24 117.86 50.91 121.24 50.8 121.25 51.14 117.87 51.24"/>
      <polygon class="cls-7" points="116.02 55.84 115.79 56.09 118.45 58.42 118.69 58.16 116.02 55.84"/>
      <polygon class="cls-7" points="117.64 53.02 117.49 53.33 120.56 54.7 120.71 54.4 117.64 53.02"/>
      <polygon class="cls-7"
               points="47.13 37.53 46.52 37.53 46.52 36.93 46.31 36.93 46.31 37.53 45.7 37.53 45.7 37.73 46.31 37.73 46.31 38.33 46.52 38.33 46.52 37.73 47.13 37.73 47.13 37.53"/>
      <polygon class="cls-7"
               points="83.85 76.48 83.24 76.48 83.24 75.88 83.03 75.88 83.03 76.48 82.42 76.48 82.42 76.68 83.03 76.68 83.03 77.28 83.24 77.28 83.24 76.68 83.85 76.68 83.85 76.48"/>
      <polygon class="cls-7"
               points="106.72 21.27 106.1 21.27 106.1 20.67 105.9 20.67 105.9 21.27 105.28 21.27 105.28 21.47 105.9 21.47 105.9 22.07 106.1 22.07 106.1 21.47 106.72 21.47 106.72 21.27"/>
      <polygon class="cls-7" points="111.81 101.32 110.07 99.69 117.21 92.34 118.96 93.97 111.81 101.32"/>
      <path class="cls-3"
            d="M108.32,103.21h0a1.53,1.53,0,0,1-.06-2.2l6-6.23,2.3,2.15-6,6.22A1.61,1.61,0,0,1,108.32,103.21Z"/>
      <path class="cls-7"
            d="M126.33,96.78a12.5,12.5,0,0,1-8.53-3.33,11.94,11.94,0,0,1-.45-17.14,12.6,12.6,0,0,1,17.52-.43A11.93,11.93,0,0,1,135.32,93h0A12.48,12.48,0,0,1,126.33,96.78Zm0-23.56a11.83,11.83,0,0,0-8.49,3.56A11.29,11.29,0,0,0,118.27,93a11.92,11.92,0,0,0,16.55-.41h0a11.27,11.27,0,0,0-.42-16.18A11.81,11.81,0,0,0,126.34,73.22Z"/>
      <path class="cls-2"
            d="M126.33,94.7a10.34,10.34,0,0,1-7.06-2.76,9.88,9.88,0,0,1-.37-14.19,10.41,10.41,0,0,1,14.5-.36,9.87,9.87,0,0,1,.37,14.18,10.25,10.25,0,0,1-7.17,3.12Zm0-19.73h-.26a10,10,0,0,0-6.93,3,9.54,9.54,0,0,0,.36,13.7,10.07,10.07,0,0,0,14-.35,9.52,9.52,0,0,0-.36-13.7A9.93,9.93,0,0,0,126.34,75Z"/>
      <path class="cls-3" d="M130.38,91.55V90.2a3.7,3.7,0,0,0-3.73-3.65h-.6a3.7,3.7,0,0,0-3.74,3.65v1.35Z"/>
      <path class="cls-4"
            d="M125.29,85.36l0,.1a1.73,1.73,0,0,0-.12.64v1.28a1.14,1.14,0,0,0,1.15,1.13h0a1.14,1.14,0,0,0,1.15-1.13V85.94a1.27,1.27,0,0,0,0-.34l-.08-.21A1.1,1.1,0,0,0,125.29,85.36Z"/>
      <path class="cls-5"
            d="M126.37,87.23h-.06a3.13,3.13,0,0,1-3.18-3.1l-.07-3a2.84,2.84,0,0,1,2.87-2.81h.67a2.84,2.84,0,0,1,2.87,2.8l.07,3A3.14,3.14,0,0,1,126.37,87.23Z"/>
      <path class="cls-15"
            d="M123.29,81a.8.8,0,0,1,.28-.6.81.81,0,0,0,.28-.61v-.57a2.77,2.77,0,0,0-.79,1.94l0,1h0a.2.2,0,0,0,.21-.2Z"/>
      <path class="cls-5"
            d="M129.17,82.65a.8.8,0,0,1,1.08-.16.75.75,0,0,1,.17,1.06.78.78,0,0,1-1.08.16A.75.75,0,0,1,129.17,82.65Z"/>
      <path class="cls-16"
            d="M129.13,79.82a2.91,2.91,0,0,0-2.53-1.47h-.67a2.9,2.9,0,0,0-2.07.86A1.24,1.24,0,0,0,125,80h3.42A1.23,1.23,0,0,0,129.13,79.82Z"/>
      <path class="cls-16"
            d="M123.29,81a.8.8,0,0,1,.28-.6.81.81,0,0,0,.28-.61v-.57a2.77,2.77,0,0,0-.79,1.94l0,1.16h0a.21.21,0,0,0,.21-.21Z"/>
      <path class="cls-16"
            d="M129.29,81.06a.8.8,0,0,0-.28-.6.81.81,0,0,1-.28-.61v-.57a2.75,2.75,0,0,1,.79,1.94l0,1h0a.2.2,0,0,1-.21-.2Z"/>
      <path class="cls-5"
            d="M123.3,83.55a.78.78,0,0,1-1.08.16.75.75,0,0,1-.16-1.06.8.8,0,0,1,1.08-.16A.74.74,0,0,1,123.3,83.55Z"/>
      <polygon class="cls-7"
               points="136.16 56.5 135.55 56.5 135.55 55.9 135.34 55.9 135.34 56.5 134.73 56.5 134.73 56.7 135.34 56.7 135.34 57.3 135.55 57.3 135.55 56.7 136.16 56.7 136.16 56.5"/>
      <polygon class="cls-7"
               points="21.5 56.5 20.89 56.5 20.89 55.9 20.68 55.9 20.68 56.5 20.07 56.5 20.07 56.7 20.68 56.7 20.68 57.3 20.89 57.3 20.89 56.7 21.5 56.7 21.5 56.5"/>
      <polygon class="cls-7"
               points="80.04 6.03 79.43 6.03 79.43 5.43 79.22 5.43 79.22 6.03 78.61 6.03 78.61 6.23 79.22 6.23 79.22 6.83 79.43 6.83 79.43 6.23 80.04 6.23 80.04 6.03"/>
      <path class="cls-2"
            d="M114.49,37l-.37-.17a2.7,2.7,0,0,0-.06-.41l.31-.26a.34.34,0,0,0,.08-.45l-.26-.43a.33.33,0,0,0-.22-.16.38.38,0,0,0-.21,0l-.39.15a2.11,2.11,0,0,0-.35-.26l0-.4a.35.35,0,0,0-.26-.37l-.5-.12a.36.36,0,0,0-.42.19l-.17.38a1.52,1.52,0,0,0-.42.06l-.26-.31a.35.35,0,0,0-.19-.12.36.36,0,0,0-.27,0l-.44.26a.34.34,0,0,0-.15.42l.15.38a2.78,2.78,0,0,0-.26.34l-.4,0a.34.34,0,0,0-.38.26l-.13.48a.35.35,0,0,0,.2.41l.38.16a2,2,0,0,0,.07.42l-.32.25a.35.35,0,0,0-.08.45l.26.43a.36.36,0,0,0,.22.16.41.41,0,0,0,.22,0l.39-.15a2,2,0,0,0,.33.24l0,.41a.36.36,0,0,0,.27.37l.5.12a.35.35,0,0,0,.41-.2l.17-.36a2.83,2.83,0,0,0,.42-.06l.27.31a.42.42,0,0,0,.18.11.39.39,0,0,0,.28,0l.44-.25a.35.35,0,0,0,.15-.43l-.15-.37a2.78,2.78,0,0,0,.26-.34l.41,0a.38.38,0,0,0,.38-.26l.12-.49a.33.33,0,0,0-.2-.4Z"/>
      <path class="cls-8"
            d="M112.14,35.79a1.27,1.27,0,0,0-1.53.88,1.23,1.23,0,0,0,.9,1.49,1.27,1.27,0,0,0,1.53-.88,1.23,1.23,0,0,0-.9-1.49Zm-.55,2.06a.9.9,0,0,1-.66-1.1.94.94,0,0,1,1.13-.65.9.9,0,0,1,.66,1.1.94.94,0,0,1-1.13.65Z"/>
      <polygon class="cls-7"
               points="49.56 17.88 48.94 17.88 48.94 17.28 48.74 17.28 48.74 17.88 48.12 17.88 48.12 18.08 48.74 18.08 48.74 18.69 48.94 18.69 48.94 18.08 49.56 18.08 49.56 17.88"/>
    </g>
  </g>
</svg>
