<svg xmlns="http://www.w3.org/2000/svg" viewBox="0 0 30.16 22.49"><defs><style>.cls-1{fill:#ccc;}.cls-2{fill:#00c8d9;}.cls-3{fill:#4d4d4d;opacity:0.2;isolation:isolate;}.cls-4{fill:#e6e6e6;}.cls-5{fill:#b3b3b3;}.cls-6{fill:#fff;}</style></defs><title>step2-bskp</title><g id="Layer_2" data-name="Layer 2"><g id="object"><rect class="cls-1" x="0.8" y="4.75" width="17.82" height="13.18"/><rect class="cls-1" y="4.75" width="19.42" height="3.1"/><path class="cls-2" d="M14.27.7A2.89,2.89,0,0,0,10.5.7a2.22,2.22,0,0,0-.79,1.68A2.25,2.25,0,0,0,8.93.7,2.9,2.9,0,0,0,5.15.7a2.25,2.25,0,0,0-.78,1.68A2.53,2.53,0,0,0,7,4.75H8V17.93h3.36V4.75h1a2.54,2.54,0,0,0,2.68-2.37A2.22,2.22,0,0,0,14.27.7ZM7,3.46A1.16,1.16,0,0,1,5.82,2.38a1,1,0,0,1,.36-.77,1.32,1.32,0,0,1,1.72,0,1,1,0,0,1,.36.77V3.46Zm5.34,0H11.17V2.38a1,1,0,0,1,.35-.77,1.33,1.33,0,0,1,1.73,0,1,1,0,0,1,.35.77A1.15,1.15,0,0,1,12.38,3.46Z"/><rect class="cls-3" x="0.8" y="7.86" width="7.23" height="1.11"/><rect class="cls-3" x="11.39" y="7.86" width="7.23" height="1.11"/><rect class="cls-4" x="13.77" y="11.85" width="2.01" height="2.85"/><polygon class="cls-4" points="12.78 12.31 16.79 12.31 14.78 10.52 12.78 12.31"/><rect class="cls-4" x="3.64" y="11.85" width="2.01" height="2.85"/><polygon class="cls-4" points="2.64 12.31 6.65 12.31 4.64 10.52 2.64 12.31"/><path class="cls-4" d="M5.63,18.93a1.44,1.44,0,1,1,0,2.87,1.44,1.44,0,1,1,0-2.87Z"/><path class="cls-2" d="M8,20.36v.14a2.3,2.3,0,0,1-2.39,2,2.29,2.29,0,0,1-2.38-2s0-.09,0-.14a1.88,1.88,0,0,1,.25-.93,2.42,2.42,0,0,1,2.14-1.19A2.27,2.27,0,0,1,8,20.36Zm-1.41,0a.93.93,0,0,0-1-.87.88.88,0,1,0,0,1.75A.93.93,0,0,0,6.61,20.36Z"/><path class="cls-4" d="M25.38,18.93a1.44,1.44,0,1,1-1.61,1.43A1.53,1.53,0,0,1,25.38,18.93Z"/><path class="cls-2" d="M29.56,13.24v6.19H28.08a1.74,1.74,0,0,0-.1-.19,3,3,0,0,0-5.3.19,2.45,2.45,0,0,0-.19.93v.14H20.23V7.8a.52.52,0,0,1,.54-.49h6.14a1.36,1.36,0,0,1,1.44,1.28v3.06a1.08,1.08,0,0,0,.75,1A.66.66,0,0,1,29.56,13.24Z"/><path class="cls-5" d="M30.16,19.43V20.5H28.27s0-.09,0-.14a2.32,2.32,0,0,0-.2-.93Z"/><path class="cls-2" d="M23,20.5a.61.61,0,0,1,0-.14,2.27,2.27,0,0,1,2.39-2.12,2.44,2.44,0,0,1,2.15,1.19,2,2,0,0,1,.24.93v.14a2.42,2.42,0,0,1-4.77,0Zm3.36-.14a1,1,0,1,0-1,.88A.93.93,0,0,0,26.36,20.36Z"/><path class="cls-3" d="M21.19,7.31V19.43h-1V7.8a.52.52,0,0,1,.54-.49Z"/><path class="cls-6" d="M28.91,18.13a1.13,1.13,0,1,1,0-2.24Z"/><path class="cls-6" d="M25.54,8.59H22.28a.37.37,0,0,0-.39.34v3a.37.37,0,0,0,.39.34h3.26Z"/><path class="cls-6" d="M27.08,8.59h-.66v3.64h.66a.37.37,0,0,0,.39-.34v-3A.37.37,0,0,0,27.08,8.59Z"/><path class="cls-5" d="M22.69,19.43H20.23V17.88H.15V20.5h2.6a.61.61,0,0,1,0-.14,2.27,2.27,0,0,1,.17-.86H8.36a2.27,2.27,0,0,1,.17.86c0,.05,0,.1,0,.14h14v-.14A2.29,2.29,0,0,1,22.69,19.43Z"/></g></g></svg>