<svg xmlns="http://www.w3.org/2000/svg" viewBox="0 0 24 23.96"><defs><style>.cls-1{fill:#00c8d9;}.cls-2{fill:#fff;}.cls-3{fill:#b3b3b3;}</style></defs><title>step3-bskp</title><g id="Layer_2" data-name="Layer 2"><g id="object"><path class="cls-1" d="M13.55,19.32h-3.1V18a6.17,6.17,0,0,1-1.59-.67l-1,1L5.7,16.08l1-1A6.24,6.24,0,0,1,6,13.52H4.65V10.43H6a6.32,6.32,0,0,1,.67-1.59l-1-1L7.89,5.69l1,1A6.51,6.51,0,0,1,10.45,6V4.64h3.1V6a6.51,6.51,0,0,1,1.59.66l1-1L18.3,7.88l-1,1A6.32,6.32,0,0,1,18,10.43h1.35v3.09H18a6.24,6.24,0,0,1-.67,1.6l1,1-2.19,2.18-1-1a6.17,6.17,0,0,1-1.59.67v1.35Z"/><path class="cls-2" d="M10.06,13.62v.29H9.68v.77h.38v1.16h3.88V14.68h.38v-.77h-.38v-.29a3.1,3.1,0,1,0-3.88,0Zm3.1,1.45H10.84v-.39h2.32Zm-1.55-3.86a.39.39,0,1,1,.39.38A.39.39,0,0,1,11.61,11.21ZM12,8.89a2.32,2.32,0,0,1,1.33,4.22l-.17.11v.69h-.77V12.29a1.15,1.15,0,0,0,.77-1.08,1.16,1.16,0,0,0-2.32,0,1.15,1.15,0,0,0,.77,1.08v1.62h-.77v-.69l-.17-.11A2.32,2.32,0,0,1,12,8.89Z"/><path class="cls-3" d="M14.71,0h-8a3.2,3.2,0,0,0-2.4,1.09,3.11,3.11,0,0,0-.78,2.33,3.1,3.1,0,0,0,.89,2H3.48v.77H5.72l.46-1.84-.75-.18L5.2,5.1,5.12,5A2.42,2.42,0,0,1,4.87,1.6,2.42,2.42,0,0,1,6.69.77h8Z"/><path class="cls-3" d="M4.16,18.54l1,.23L5,18.85a2.43,2.43,0,0,1-3.44.25,2.46,2.46,0,0,1-.83-1.83v-8H0v8a3.19,3.19,0,0,0,3.19,3.2h.24a3.23,3.23,0,0,0,2-.89v.91h.77V18.25l-1.84-.46Z"/><path class="cls-3" d="M17.82,19.61l.75.19.23-.94.08.07a2.34,2.34,0,0,1,.84,1.66,2.39,2.39,0,0,1-.59,1.77,2.45,2.45,0,0,1-1.82.83h-8V24h8a3.2,3.2,0,0,0,2.4-1.09,3.19,3.19,0,0,0-.11-4.32h.92v-.77H18.28Z"/><path class="cls-3" d="M22.91,4.28a3.22,3.22,0,0,0-2.34-.78,3.17,3.17,0,0,0-2,.89V3.48h-.77V5.71l1.84.46.19-.75-.94-.23L19,5.11a2.42,2.42,0,0,1,1.67-.84,2.39,2.39,0,0,1,1.77.59,2.45,2.45,0,0,1,.83,1.82v8H24v-8A3.2,3.2,0,0,0,22.91,4.28Z"/></g></g></svg>