<svg xmlns="http://www.w3.org/2000/svg" viewBox="0 0 18.3 15.19"><defs><style>.cls-1{fill:#b3b3b3;}.cls-2{fill:#00c8d9;}</style></defs><title>step1-bskp</title><g id="Layer_2" data-name="Layer 2"><g id="object"><g id="_Group_" data-name="&lt;Group&gt;"><path id="_Path_" data-name="&lt;Path&gt;" class="cls-1" d="M9.69,9.53a.82.82,0,0,0,0,1.19.85.85,0,0,0,.61.25.82.82,0,0,0,.6-.25l2.58-2.53,0-.06,0,0a.05.05,0,0,0,0,0l0,0,0,0,0,0s0,0,0,0,0,0,0,0v0s0,0,0,0,0,0,0,0,0,0,0,0v0a.25.25,0,0,0,0-.08h0a.25.25,0,0,0,0-.08v0s0,0,0-.05a986468400954.39,986468400954.39,0,0,1,0-.08s0,0,0,0,0,0,0,0v0l0,0a.05.05,0,0,1,0,0l0,0,0,0,0,0,0-.06h0L10.9,4.47a.86.86,0,0,0-1.21,0,.82.82,0,0,0,0,1.19L10.8,6.75H.86a.85.85,0,1,0,0,1.69H10.8Z"/><path id="_Path_2" data-name="&lt;Path&gt;" class="cls-2" d="M17.45,0H6.58a.85.85,0,0,0-.86.84V4.22a.86.86,0,0,0,1.72,0V1.69h9.15V13.5H7.44V11a.86.86,0,0,0-1.72,0v3.38a.85.85,0,0,0,.86.84H17.45a.85.85,0,0,0,.85-.84V.84A.85.85,0,0,0,17.45,0Z"/></g></g></g></svg>