<svg xmlns="http://www.w3.org/2000/svg" viewBox="0 0 19.65 22.4"><defs><style>.cls-1{fill:#b3b3b3;}.cls-2{fill:#00c8d9;}.cls-3{fill:#fff;}</style></defs><title>step4-bskp</title><g id="Layer_2" data-name="Layer 2"><g id="object"><path class="cls-1" d="M15,21.75a.62.62,0,0,1-.58.65H5.22a.66.66,0,0,1,0-1.31h9.21A.62.62,0,0,1,15,21.75Z"/><path class="cls-1" d="M5.78,10.39l-.67-.18a5.75,5.75,0,0,1-4-5.62V3.83H4.3a.61.61,0,0,0,.57-.64.61.61,0,0,0-.57-.64H.58A.61.61,0,0,0,0,3.19v1.4a7,7,0,0,0,4.84,6.85l.66.19a.57.57,0,0,0,.69-.47A.64.64,0,0,0,5.78,10.39Z"/><path class="cls-1" d="M19.07,2.55H15.35a.61.61,0,0,0-.57.64.61.61,0,0,0,.57.64H18.5v1a5.76,5.76,0,0,1-3.68,5.52l-1.29.45a.66.66,0,0,0-.38.8.58.58,0,0,0,.73.42l1.28-.45a7,7,0,0,0,4.49-6.74V3.19A.61.61,0,0,0,19.07,2.55Z"/><rect class="cls-1" x="8.1" y="12.81" width="3.45" height="6.43"/><path class="cls-2" d="M13.86,18.6v1.55c0,.36-.26.94-.58.94H6.37c-.32,0-.57-.58-.57-.94V18.6a1.83,1.83,0,0,1,1.72-1.92h4.61A1.84,1.84,0,0,1,13.86,18.6Z"/><path class="cls-2" d="M16.16.7l-.69,7.73a5.91,5.91,0,0,1-5.64,5.66A5.92,5.92,0,0,1,4.18,8.43L3.49.7A.64.64,0,0,1,4,0H15.64A.64.64,0,0,1,16.16.7Z"/><path class="cls-1" d="M17.31.64a.6.6,0,0,1-.58.64H2.92A.6.6,0,0,1,2.34.64.6.6,0,0,1,2.92,0H16.73A.6.6,0,0,1,17.31.64Z"/><path class="cls-3" d="M12.89,5.08l-1.76-.29L10.34,3a.56.56,0,0,0-1,0L8.52,4.79l-1.76.29a.66.66,0,0,0-.32,1.09L7.72,7.54l-.3,2a.59.59,0,0,0,.83.67l1.58-.91,1.57.91a.59.59,0,0,0,.83-.67l-.3-2,1.28-1.37A.66.66,0,0,0,12.89,5.08Z"/></g></g></svg>