<?xml version="1.0"?>
<svg xmlns="http://www.w3.org/2000/svg" height="512px" viewBox="0 0 496 496" width="512px"><g><path d="m248 352c-26.472656 0-48 21.527344-48 48s21.527344 48 48 48 48-21.527344 48-48-21.527344-48-48-48zm0 80c-17.648438 0-32-14.351562-32-32s14.351562-32 32-32 32 14.351562 32 32-14.351562 32-32 32zm0 0" data-original="#000000" class="active-path" data-old_color="#000000" fill="#FFFFFF"/><path d="m464 432c-14.863281 0-27.289062 10.230469-30.863281 24h-17.136719v-112h17.136719c3.574219 13.769531 16 24 30.863281 24 17.648438 0 32-14.351562 32-32s-14.351562-32-32-32c-14.863281 0-27.289062 10.230469-30.863281 24h-25.136719c-4.414062 0-8 3.574219-8 8v56h-56v-8c0-4.425781-3.585938-8-8-8h-11.726562c-1.304688-4.136719-2.945313-8.160156-4.921876-12.039062l6.304688-6.304688c3.128906-3.128906 3.128906-8.183594 0-11.3125l-24-24c-3.128906-3.128906-8.183594-3.128906-11.3125 0l-6.3125 6.304688c-3.878906-1.96875-7.902344-3.617188-12.03125-4.914063v-11.734375c0-4.425781-3.585938-8-8-8h-8v-32h112c4.414062 0 8-3.574219 8-8v-64c0-4.425781-3.585938-8-8-8h-8v-16h8c4.414062 0 8-3.574219 8-8v-64c0-4.425781-3.585938-8-8-8h-8v-16h8c4.414062 0 8-3.574219 8-8v-64c0-4.425781-3.585938-8-8-8h-240c-4.414062 0-8 3.574219-8 8v64c0 4.425781 3.585938 8 8 8h8v16h-8c-4.414062 0-8 3.574219-8 8v64c0 4.425781 3.585938 8 8 8h8v16h-8c-4.414062 0-8 3.574219-8 8v64c0 4.425781 3.585938 8 8 8h112v32h-8c-4.414062 0-8 3.574219-8 8v11.734375c-4.128906 1.296875-8.152344 2.945313-12.03125 4.914063l-6.3125-6.304688c-3.128906-3.128906-8.183594-3.128906-11.3125 0l-24 24c-3.128906 3.128906-3.128906 8.183594 0 11.3125l6.304688 6.304688c-1.976563 3.878906-3.617188 7.902343-4.921876 12.039062h-11.726562c-4.414062 0-8 3.574219-8 8v8h-56v-56c0-4.425781-3.585938-8-8-8h-25.136719c-3.574219-13.769531-16-24-30.863281-24-17.648438 0-32 14.351562-32 32s14.351562 32 32 32c14.863281 0 27.289062-10.230469 30.863281-24h17.136719v112h-17.136719c-3.574219-13.769531-16-24-30.863281-24-17.648438 0-32 14.351562-32 32s14.351562 32 32 32c14.863281 0 27.289062-10.230469 30.863281-24h25.136719c4.414062 0 8-3.574219 8-8v-56h56v8c0 4.425781 3.585938 8 8 8h11.726562c1.304688 4.136719 2.945313 8.160156 4.921876 12.039062l-6.304688 6.304688c-3.128906 3.128906-3.128906 8.183594 0 11.3125l24 24c3.128906 3.128906 8.183594 3.128906 11.3125 0l6.3125-6.304688c3.878906 1.96875 7.902344 3.617188 12.03125 4.914063v11.734375c0 4.425781 3.585938 8 8 8h32c4.414062 0 8-3.574219 8-8v-11.734375c4.128906-1.296875 8.152344-2.945313 12.03125-4.914063l6.3125 6.304688c3.128906 3.128906 8.183594 3.128906 11.3125 0l24-24c3.128906-3.128906 3.128906-8.183594 0-11.3125l-6.304688-6.304688c1.976563-3.878906 3.617188-7.902343 4.921876-12.039062h11.726562c4.414062 0 8-3.574219 8-8v-8h56v56c0 4.425781 3.585938 8 8 8h25.136719c3.574219 13.769531 16 24 30.863281 24 17.648438 0 32-14.351562 32-32s-14.351562-32-32-32zm0-112c8.824219 0 16 7.175781 16 16s-7.175781 16-16 16-16-7.175781-16-16 7.175781-16 16-16zm-328-304h224v48h-224zm16 64h192v16h-192zm-16 32h224v48h-224zm16 64h192v16h-192zm-16 32h224v48h-224zm-104 144c-8.824219 0-16-7.175781-16-16s7.175781-16 16-16 16 7.175781 16 16-7.175781 16-16 16zm0 128c-8.824219 0-16-7.175781-16-16s7.175781-16 16-16 16 7.175781 16 16-7.175781 16-16 16zm296-72h-9.839844c-3.734375 0-6.976562 2.585938-7.800781 6.222656-1.519531 6.6875-4.136719 13.097656-7.757813 19.023438-1.929687 3.160156-1.449218 7.21875 1.167969 9.832031l4.917969 4.921875-12.6875 12.6875-4.921875-4.917969c-2.605469-2.609375-6.664063-3.105469-9.832031-1.167969-5.933594 3.628907-12.335938 6.238282-19.023438 7.765626-3.636718.816406-6.222656 4.058593-6.222656 7.792968v9.839844h-16v-9.839844c0-3.734375-2.585938-6.96875-6.222656-7.800781-6.679688-1.519531-13.089844-4.136719-19.023438-7.765625-3.152344-1.929688-7.21875-1.441406-9.832031 1.167969l-4.921875 4.925781-12.6875-12.6875 4.917969-4.921875c2.617187-2.605469 3.097656-6.671875 1.167969-9.832031-3.621094-5.925782-6.230469-12.335938-7.757813-19.023438-.824219-3.636718-4.066406-6.222656-7.800781-6.222656h-9.839844v-16h9.839844c3.734375 0 6.976562-2.585938 7.800781-6.222656 1.519531-6.6875 4.136719-13.097656 7.757813-19.023438 1.929687-3.160156 1.449218-7.21875-1.167969-9.832031l-4.917969-4.921875 12.6875-12.6875 4.921875 4.917969c2.613281 2.625 6.671875 3.113281 9.832031 1.167969 5.933594-3.628907 12.335938-6.238282 19.023438-7.765626 3.636718-.816406 6.222656-4.058593 6.222656-7.792968v-9.839844h16v9.839844c0 3.734375 2.585938 6.96875 6.222656 7.800781 6.679688 1.519531 13.089844 4.136719 19.023438 7.765625 3.167968 1.9375 7.21875 1.457031 9.832031-1.167969l4.921875-4.925781 12.6875 12.6875-4.917969 4.921875c-2.617187 2.605469-3.097656 6.671875-1.167969 9.832031 3.621094 5.925782 6.230469 12.335938 7.757813 19.023438.824219 3.636718 4.066406 6.222656 7.800781 6.222656h9.839844zm136 72c-8.824219 0-16-7.175781-16-16s7.175781-16 16-16 16 7.175781 16 16-7.175781 16-16 16zm0 0" data-original="#000000" class="active-path" data-old_color="#000000" fill="#FFFFFF"/><path d="m152 224h16v16h-16zm0 0" data-original="#000000" class="active-path" data-old_color="#000000" fill="#FFFFFF"/><path d="m312 224h32v16h-32zm0 0" data-original="#000000" class="active-path" data-old_color="#000000" fill="#FFFFFF"/><path d="m264 224h32v16h-32zm0 0" data-original="#000000" class="active-path" data-old_color="#000000" fill="#FFFFFF"/><path d="m152 128h16v16h-16zm0 0" data-original="#000000" class="active-path" data-old_color="#000000" fill="#FFFFFF"/><path d="m312 128h32v16h-32zm0 0" data-original="#000000" class="active-path" data-old_color="#000000" fill="#FFFFFF"/><path d="m264 128h32v16h-32zm0 0" data-original="#000000" class="active-path" data-old_color="#000000" fill="#FFFFFF"/><path d="m152 32h16v16h-16zm0 0" data-original="#000000" class="active-path" data-old_color="#000000" fill="#FFFFFF"/><path d="m312 32h32v16h-32zm0 0" data-original="#000000" class="active-path" data-old_color="#000000" fill="#FFFFFF"/><path d="m264 32h32v16h-32zm0 0" data-original="#000000" class="active-path" data-old_color="#000000" fill="#FFFFFF"/></g> </svg>
