<svg xmlns="http://www.w3.org/2000/svg" viewBox="0 0 470.94 446.45" class="work-flow">
    <defs>
        <style>
            .wf-ani:hover {
                animation-name: spin;
                transform-origin: center;
            }
            #bg-circle{
                animation-name: spin;
                animation: spin 40s infinite;
                transform-origin: center;
            }

            @-moz-keyframes spin {
                from { -moz-transform: rotate(0deg); }
                to { -moz-transform: rotate(360deg); }
            }
            @-webkit-keyframes spin {
                from{ -webkit-transform: rotate(0deg); }
                to { -webkit-transform: rotate(360deg); }
            }
            @keyframes spin {
                from {transform:rotate(0deg);}
                to {transform:rotate(360deg);}
            }


            .work-flow .cls-1, .work-flow .cls-15, .work-flow .cls-16, .work-flow .cls-20, .work-flow .cls-21, .work-flow .cls-22, .work-flow .cls-23, .work-flow .cls-24, .work-flow .cls-3, .work-flow .cls-4 {
            fill: none;
            }

            .work-flow .cls-1, .work-flow .cls-15, .work-flow .cls-20, .work-flow .cls-21, .work-flow .cls-22, .work-flow .cls-23, .work-flow .cls-24, .work-flow .cls-3 {
            stroke: #95a5a6;
            stroke-linecap: round;
            stroke-linejoin: round;
            stroke-width: 2px;
            }

            .work-flow .cls-1 {
            stroke-dasharray: 6.97 6.97;
            }

            .work-flow .cls-2 {
            fill: #95a5a6;
            }

            .work-flow .cls-3 {
            stroke-dasharray: 7;
            }

            .work-flow .cls-5 {
            fill: #e71e63;
            }

            .work-flow .cls-6 {
            fill: #ee4338;
            }

            .work-flow .cls-7 {
            fill: #2d2f79;
            }

            .work-flow .cls-8 {
            fill: #478ecc;
            }

            .work-flow .cls-9 {
            fill: #fdea39;
            }

            .work-flow .cls-10 {
            fill: #ffc00e;
            }

            .work-flow .cls-11 {
            fill: #dbdcdd;
            }

            .work-flow .cls-12 {
            fill: #fff;
            }

            .work-flow .cls-13 {
            fill: #48c7ec;
            }

            .work-flow .cls-14 {
            fill: #333;
            }

            .work-flow .cls-15 {
            stroke-dasharray: 7.03 7.03;
            }

            .work-flow .cls-16 {
            stroke: #eee;
            stroke-miterlimit: 10;
            }

            .work-flow .cls-17 {
            font-size: 16px;
            font-family: Roboto-Medium, Roboto;
            }

            .work-flow .cls-18 {
            letter-spacing: -0.01em;
            }

            .work-flow .cls-19 {
            letter-spacing: -0.01em;
            }

            .work-flow .cls-20 {
            stroke-dasharray: 7.03 7.03;
            }

            .work-flow .cls-22 {
            stroke-dasharray: 7.03 7.03;
            }

            .work-flow .cls-23 {
            stroke-dasharray: 7.03 7.03;
            }

            .work-flow .cls-24 {
            stroke-dasharray: 7.03 7.03;
            }

            .work-flow .cls-25 {
            letter-spacing: -0.02em;
            }</style>
    </defs>
    <title>concept-diagram_2-type</title>
    <g id="Layer_2" data-name="Layer 2">
        <g id="darkbg-ocean-theme">
            <g id="bg-circle">
                <circle class="cls-1" cx="230.86" cy="238.52" r="152.99"
                        transform="translate(-40.07 430.31) rotate(-81.23)"/>
                <path class="cls-2"
                      d="M154,104.28c5.78,6.59-1.53,15-8.85,10.18h0C139.32,107.88,146.63,99.48,154,104.28Z"/>
                <circle class="cls-2" cx="320.75" cy="113.29" r="6.51" transform="translate(-7.1 22.59) rotate(-3.99)"/>
                <circle class="cls-2" cx="380.78" cy="271.02" r="6.51"
                        transform="translate(-17.93 27.15) rotate(-3.99)"/>
                <circle class="cls-2" cx="235.94" cy="391.98" r="6.51"
                        transform="translate(-26.7 17.37) rotate(-3.99)"/>
                <circle class="cls-2" cx="83.52" cy="283.03" r="6.51" transform="translate(-19.49 6.5) rotate(-3.99)"/>
                <circle class="cls-2" cx="186.32" cy="225.8" r="6.51"
                        transform="translate(-44.9 405.36) rotate(-88.3)"/>
                <line class="cls-3" x1="143.06" y1="209.11" x2="184.3" y2="224.69"/>
                <path class="cls-4" d="M217.32,144.6"/>
                <circle class="cls-2" cx="233.09" cy="188.18" r="6.51"
                        transform="translate(15.53 394.13) rotate(-82.35)"/>
                <line class="cls-3" x1="232.34" y1="150.45" x2="233.03" y2="190.02"/>
                <path class="cls-4" d="M397.46,146.73"/>
                <circle class="cls-2" cx="285.12" cy="224.01" r="6.51"
                        transform="translate(14.45 465.28) rotate(-79.87)"/>
                <line class="cls-3" x1="319.9" y1="217.13" x2="281.3" y2="224.69"/>
                <circle class="cls-2" cx="266.63" cy="277.41" r="6.51"
                        transform="translate(-95.19 408.29) rotate(-66.02)"/>
                <line class="cls-3" x1="267.3" y1="278.69" x2="295.29" y2="311.88"/>
                <path class="cls-2"
                      d="M205.85,271.07c6.21,5.86,0,14.79-7.64,11.06a1.2,1.2,0,0,1-.29-.2c-6.22-5.86,0-14.8,7.64-11.06A1.2,1.2,0,0,1,205.85,271.07Z"/>
                <line class="cls-3" x1="172.29" y1="314.83" x2="203.3" y2="274.69"/>
                <path class="cls-5" d="M230,255.28a80.9,80.9,0,0,0-7.47-5.67V231.95l7.47,3.77Z"/>
                <polygon class="cls-6" points="240.09 223.05 248.23 226.5 229.97 235.72 222.5 231.94 240.09 223.05"/>
                <path class="cls-7" d="M211.41,226.34l7.5,3.76v17c-2.74-1.77-5.3-3.38-7.48-4.62Z"/>
                <path class="cls-8" d="M228.84,217.51c2.27,1.23,4.8,2.49,7.51,3.78l-17.45,8.81-7.5-3.76Z"/>
                <path class="cls-9" d="M241.11,241.32v26.18a35.67,35.67,0,0,0-7.46-9V237.56Z"/>
                <path class="cls-10" d="M252.43,228a71,71,0,0,0,9.61,2.7l-20.93,10.58-7.46-3.76Z"/>
                <polygon class="cls-11" points="245.11 258.95 260.4 251.22 260.4 235.86 245.11 243.63 245.11 258.95"/>
            </g>
            <g id="customize">
                <g id="customizeCircle" class="wf-ani animated">
                    <rect id="bg2" class="cls-12" x="95.3" y="316.69" width="85" height="85" rx="42.5" ry="42.5"/>
                    <path class="cls-13"
                          d="M167.34,364V353.51h-5.05a22.2,22.2,0,0,0-2.81-6.66l3.58-3.51-7.53-7.39-3.58,3.51a23,23,0,0,0-6.78-2.76v-5H134.52v5a23.13,23.13,0,0,0-3.9,1.28l.35,5.08-5.32,4.35v22.65l5.32,5.23-.35,4.21a23.28,23.28,0,0,0,3.9,1.28v5h10.65v-5a23.07,23.07,0,0,0,6.78-2.76l3.58,3.51,7.53-7.39-3.58-3.51a22.19,22.19,0,0,0,2.81-6.66Z"/>
                    <path class="cls-14"
                          d="M131.86,342.55v-7.69l-3.18-3.12h-3.92v7h-5.33v-7h-3.92l-3.18,3.12v7.69l5.32,5.23V369.7l-5.32,5.23v7.69l3.18,3.12h3.92v-7h5.33v7h3.92l3.18-3.12v-7.69l-5.32-5.23V347.77Zm-17.74-7,2.14-2.1h1.41v7h8.88v-7h1.41l2.14,2.1v6.25l-4.8,4.72h-6.36l-4.8-4.72Zm10.65,33.61h-5.32v-20.9h1.77v16.55H123V348.28h1.77Zm5.32,12.7-2.14,2.1h-1.41v-7h-8.88v7h-1.41l-2.14-2.1v-6.25l4.8-4.72h6.36l4.8,4.72Z"/>
                    <rect class="cls-14" x="120.94" y="366.7" width="1.87" height="1.74"/>
                    <path class="cls-14"
                          d="M139.84,345.67a13.07,13.07,0,1,0,13.31,13.06A13.2,13.2,0,0,0,139.84,345.67Zm0,24.39a11.32,11.32,0,1,1,11.53-11.32A11.44,11.44,0,0,1,139.84,370.06Z"/>
                    <path class="cls-14"
                          d="M139.84,352.64a6.1,6.1,0,1,0,6.21,6.1A6.16,6.16,0,0,0,139.84,352.64Zm0,10.45a4.36,4.36,0,1,1,4.44-4.35A4.4,4.4,0,0,1,139.84,363.09Z"/>
                    <polygon class="cls-14" points="147.83 357.87 150.6 358.87 150.6 360.61 147.83 359.61 147.83 357.87"/>
                    <rect class="cls-14" x="130.09" y="357.87" width="1.77" height="1.74"/>
                    <rect class="cls-14" x="138.96" y="349.16" width="1.77" height="1.74"/>
                    <rect class="cls-14" x="138.96" y="366.58" width="1.77" height="1.74"/>
                    <circle class="cls-15" cx="137.77" cy="358.18" r="55.92"
                            transform="translate(-62.27 30.68) rotate(-10.38)"/>
                </g>
                <polyline class="cls-16" points="135.84 433.45 126.34 445.95 62.34 445.95"/>
                <text class="cls-17" transform="translate(48.04 434.95)">Cus
                    <tspan class="cls-18" x="27.59" y="0">t</tspan>
                    <tspan x="32.68" y="0">omi</tspan>
                    <tspan class="cls-19" x="59.8" y="0">z</tspan>
                    <tspan x="67.72" y="0">e</tspan>
                </text>
                <path class="cls-13"
                      d="M141.75,426.76a6.53,6.53,0,0,1-8.07,7.6,6.46,6.46,0,0,1-4.71-5,6.53,6.53,0,0,1,8.07-7.6A6.46,6.46,0,0,1,141.75,426.76Z"/>
            </g>
            <g id="integrate">
                <g id="integrateCircle" class="wf-ani  animated">
                    <circle class="cls-20" cx="86.76" cy="192.28" r="55.92"
                            transform="translate(-108 273.32) rotate(-88.3)"/>
                    <rect id="bg4" class="cls-12" x="44.3" y="149.69" width="85" height="85" rx="42.5" ry="42.5"/>
                    <path class="cls-14"
                          d="M108.7,180h1.07v-2H108.7v-2.45l-3.83-3.65H102.3v-1h-2.13v1H98v-9.15H95.9v9.15H93.77v-9.15H91.64v9.15H89.5v-1H87.37v1H85.24v-1H83.1v1H81v-9.15H78.84v9.15H76.7v-9.15H74.57v9.15H72.44v-1H70.3v1H67.73l-3.83,3.65v2.45H62.84v2H63.9v2H54.3v2h9.6v2H54.3v2h9.6v2H62.84v2H63.9v2H62.84v2H63.9v2H54.3v2h9.6v2H54.3v2h9.6v2H62.84v2H63.9v2.45l3.83,3.65H70.3v1h2.13v-1h2.13v9.15H76.7v-9.15h2.13v9.15H81v-9.15H83.1v1h2.13v-1h2.13v1H89.5v-1h2.13v9.15h2.13v-9.15H95.9v9.15H98v-9.15h2.13v1h2.13v-1h2.57l3.83-3.65v-2.45h1.07v-2H108.7v-2h9.6v-2h-9.6v-2h9.6v-2h-9.6v-2h1.07v-2H108.7v-2h1.07v-2H108.7v-2h9.6v-2h-9.6v-2h9.6v-2h-9.6Zm-2.13,30.08L104,212.5H68.61L66,210.05V176.33l2.57-2.45H104l2.57,2.45Z"/>
                    <rect class="cls-14" x="58.57" y="177.94" width="2.13" height="2.03"/>
                    <rect class="cls-14" x="54.3" y="177.94" width="2.13" height="2.03"/>
                    <rect class="cls-14" x="54.3" y="190.14" width="2.13" height="2.03"/>
                    <rect class="cls-14" x="58.57" y="190.14" width="2.13" height="2.03"/>
                    <rect class="cls-14" x="58.57" y="194.2" width="2.13" height="2.03"/>
                    <rect class="cls-14" x="54.3" y="194.2" width="2.13" height="2.03"/>
                    <rect class="cls-14" x="58.57" y="206.4" width="2.13" height="2.03"/>
                    <rect class="cls-14" x="54.3" y="206.4" width="2.13" height="2.03"/>
                    <rect class="cls-14" x="116.17" y="177.94" width="2.13" height="2.03"/>
                    <rect class="cls-14" x="111.9" y="177.94" width="2.13" height="2.03"/>
                    <rect class="cls-14" x="111.9" y="190.14" width="2.13" height="2.03"/>
                    <rect class="cls-14" x="116.17" y="190.14" width="2.13" height="2.03"/>
                    <rect class="cls-14" x="111.9" y="194.2" width="2.13" height="2.03"/>
                    <rect class="cls-14" x="116.17" y="194.2" width="2.13" height="2.03"/>
                    <rect class="cls-14" x="111.9" y="206.4" width="2.13" height="2.03"/>
                    <rect class="cls-14" x="116.17" y="206.4" width="2.13" height="2.03"/>
                    <rect class="cls-14" x="100.17" y="166.75" width="2.13" height="2.03"/>
                    <rect class="cls-14" x="100.17" y="162.69" width="2.13" height="2.03"/>
                    <rect class="cls-14" x="87.37" y="162.69" width="2.13" height="2.03"/>
                    <rect class="cls-14" x="87.37" y="166.75" width="2.13" height="2.03"/>
                    <rect class="cls-14" x="83.1" y="166.75" width="2.13" height="2.03"/>
                    <rect class="cls-14" x="83.1" y="162.69" width="2.13" height="2.03"/>
                    <rect class="cls-14" x="70.3" y="166.75" width="2.13" height="2.03"/>
                    <rect class="cls-14" x="70.3" y="162.69" width="2.13" height="2.03"/>
                    <rect class="cls-14" x="100.17" y="217.59" width="2.13" height="2.03"/>
                    <rect class="cls-14" x="100.17" y="221.65" width="2.13" height="2.03"/>
                    <rect class="cls-14" x="87.37" y="217.59" width="2.13" height="2.03"/>
                    <rect class="cls-14" x="87.37" y="221.65" width="2.13" height="2.03"/>
                    <rect class="cls-14" x="83.1" y="221.65" width="2.13" height="2.03"/>
                    <rect class="cls-14" x="83.1" y="217.59" width="2.13" height="2.03"/>
                    <rect class="cls-14" x="70.3" y="221.65" width="2.13" height="2.03"/>
                    <rect class="cls-14" x="70.3" y="217.59" width="2.13" height="2.03"/>
                    <path class="cls-14"
                          d="M73.5,174.89A4.17,4.17,0,0,0,69.24,179a4.1,4.1,0,0,0,3.2,3.92v3.19h2.13v-3.19a4.1,4.1,0,0,0,3.2-3.92A4.17,4.17,0,0,0,73.5,174.89Zm0,6.1a2,2,0,1,1,2.13-2A2.09,2.09,0,0,1,73.5,181Z"/>
                    <path class="cls-14"
                          d="M98,182.88v5.23h2.13v-5.23a4.1,4.1,0,0,0,3.2-3.92,4.27,4.27,0,0,0-8.53,0A4.1,4.1,0,0,0,98,182.88Zm1.07-6A2,2,0,1,1,97,179,2.09,2.09,0,0,1,99.1,176.92Z"/>
                    <path class="cls-14"
                          d="M101.24,203.5V200.3H99.1v3.19a4.1,4.1,0,0,0-3.2,3.92,4.27,4.27,0,0,0,8.53,0A4.1,4.1,0,0,0,101.24,203.5Zm-1.07,6a2,2,0,1,1,2.13-2A2.09,2.09,0,0,1,100.17,209.45Z"/>
                    <path class="cls-14"
                          d="M74.57,203.5V200.3H72.44v3.19a4.1,4.1,0,0,0-3.2,3.92,4.27,4.27,0,0,0,8.53,0A4.1,4.1,0,0,0,74.57,203.5Zm-1.07,6a2,2,0,1,1,2.13-2A2.09,2.09,0,0,1,73.5,209.45Z"/>
                    <path class="cls-13"
                          d="M95,199.32H72.64a8.14,8.14,0,1,1,0-16.27,8.82,8.82,0,0,1,2.7.42,5.35,5.35,0,0,1,4.7-1.34A9.25,9.25,0,0,1,87,179a9.05,9.05,0,0,1,8.68,6.13,7.11,7.11,0,1,1-.68,14.2Z"/>
                </g>
                <polyline class="cls-16" points="75.84 116.45 66.34 128.95 2.34 128.95"/>
                <text class="cls-17" transform="translate(0 117.95)">Integ
                    <tspan class="cls-18" x="36.39" y="0">r</tspan>
                    <tspan x="41.78" y="0">ate</tspan>
                </text>
                <path class="cls-13"
                      d="M81.75,109.76a6.53,6.53,0,0,1-8.07,7.6,6.46,6.46,0,0,1-4.71-5,6.53,6.53,0,0,1,8.07-7.6A6.46,6.46,0,0,1,81.75,109.76Z"/>
            </g>
            <g id="connect">
                <g id="connectCircle"  class="wf-ani  animated">
                    <path class="cls-21" d="M395.46,138.73q1.58.78,3.09,1.65"/>
                    <path class="cls-22" d="M404.4,144.25A55.93,55.93,0,1,1,389,136"/>
                    <path class="cls-21" d="M392.27,137.27q1.6.67,3.18,1.46"/>
                    <rect id="bg5" class="cls-12" x="327.3" y="146.69" width="85" height="85" rx="42.5" ry="42.5"/>
                    <polygon class="cls-14"
                             points="343.17 207.22 346.36 207.22 346.36 213.71 348.49 213.71 348.49 207.22 351.68 207.22 351.68 205.06 343.17 205.06 343.17 207.22"/>
                    <polygon class="cls-14"
                             points="397.52 199.58 389 199.58 389 201.74 392.2 201.74 392.2 208.22 394.33 208.22 394.33 201.74 397.52 201.74 397.52 199.58"/>
                    <path class="cls-14"
                          d="M378.29,197.49v-5.78a20.23,20.23,0,1,0-14.9,0V204a1.07,1.07,0,0,1-1.06,1.08h-6.39v2.16h6.39a3.22,3.22,0,0,0,3.19-3.24V192.43a19.78,19.78,0,0,0,4.26.69v18.43a3.22,3.22,0,0,0,3.19,3.24h6.39v-2.16H373a1.07,1.07,0,0,1-1.06-1.08V193.12a19.84,19.84,0,0,0,4.26-.69v5.07a3.22,3.22,0,0,0,3.19,3.24h6.39v-2.16h-6.39A1.07,1.07,0,0,1,378.29,197.49Zm-6.39-7.29v-8a17.86,17.86,0,0,1,5.69,1.3A18.08,18.08,0,0,1,371.91,190.2Zm0-10.16v-6.32h8a24.57,24.57,0,0,1-1.47,7.78A19.89,19.89,0,0,0,371.91,180Zm8.82-11.3a.86.86,0,1,1,.85-.86A.86.86,0,0,1,380.73,168.74Zm-.79,2c0,.26,0,.52,0,.78h-8.07v-6.32a19.88,19.88,0,0,0,6.56-1.46q.3.77.54,1.62a3,3,0,0,0,.92,5.37Zm-15.72-12.63a.85.85,0,1,1,.85.86A.86.86,0,0,1,364.21,158.14Zm7.7,4.94v-8a18.55,18.55,0,0,1,5.7,6.7A17.77,17.77,0,0,1,371.91,163.08Zm3-8.32a17.94,17.94,0,0,1,7.68,3.94,18.14,18.14,0,0,1-3.07,2.17A20.73,20.73,0,0,0,374.92,154.76Zm-8.75.58a2.89,2.89,0,0,0-.83-.19c.47-.15,1-.28,1.45-.39Zm-3.5,4.59c-.17.31-.35.62-.51.93a18.1,18.1,0,0,1-3.07-2.17,18.13,18.13,0,0,1,3.69-2.48,3,3,0,0,0-.11,3.72Zm1.79,1.17a3,3,0,0,0,.6.06,3,3,0,0,0,2.67-4.36,17,17,0,0,1,2-1.72v8a17.74,17.74,0,0,1-5.7-1.28C364.2,161.57,364.33,161.34,364.46,161.11Zm5.32,4.13v6.32h-8.06a24.28,24.28,0,0,1,1.5-7.78A19.85,19.85,0,0,0,369.78,165.24Zm0,8.48V180h-.22A2.95,2.95,0,0,0,364,181.2l-.78.3a24.31,24.31,0,0,1-1.49-7.79h8Zm-2,7.78a.85.85,0,1,1-.85-.87A.86.86,0,0,1,367.81,181.5Zm-3.23,1.81a2.94,2.94,0,0,0,5.2-.88v7.75a18.52,18.52,0,0,1-5.66-6.69Zm2.16,7.2a17.93,17.93,0,0,1-7.64-3.92,18.32,18.32,0,0,1,3.05-2.15A20.71,20.71,0,0,0,366.74,190.52Zm12.8-6.07a18,18,0,0,1,3.05,2.15,17.94,17.94,0,0,1-7.64,3.93A20.69,20.69,0,0,0,379.54,184.44Zm4.59.63a20.26,20.26,0,0,0-3.71-2.63,26.52,26.52,0,0,0,1.68-8.72h6.78A18.4,18.4,0,0,1,384.13,185.07Zm4.76-13.51H382.1c0-.33,0-.66-.05-1a3,3,0,0,0-1-5.69q-.31-1.07-.68-2a20.27,20.27,0,0,0,3.73-2.65A18.43,18.43,0,0,1,388.89,171.56Zm-31.33-11.35a20.26,20.26,0,0,0,3.73,2.64,26.4,26.4,0,0,0-1.7,8.71H352.8A18.41,18.41,0,0,1,357.56,160.21Zm-4.76,13.51h6.78a26.55,26.55,0,0,0,1.68,8.72,20.46,20.46,0,0,0-3.72,2.61A18.41,18.41,0,0,1,352.8,173.72Z"/>
                    <path class="cls-13"
                          d="M341,209.38a3.24,3.24,0,1,1,3.19-3.24A3.22,3.22,0,0,1,341,209.38Zm0-4.32a1.08,1.08,0,1,0,1.06,1.08A1.07,1.07,0,0,0,341,205.06Z"/>
                    <path class="cls-13"
                          d="M353.81,209.38a3.24,3.24,0,1,1,3.19-3.24A3.22,3.22,0,0,1,353.81,209.38Zm0-4.32a1.08,1.08,0,1,0,1.06,1.08A1.07,1.07,0,0,0,353.81,205.06Z"/>
                    <path class="cls-13"
                          d="M400.65,202.9a3.24,3.24,0,1,1,3.19-3.24A3.22,3.22,0,0,1,400.65,202.9Zm0-4.32a1.08,1.08,0,1,0,1.06,1.08A1.07,1.07,0,0,0,400.65,198.58Z"/>
                    <path class="cls-13"
                          d="M387.88,202.9a3.24,3.24,0,1,1,3.19-3.24A3.22,3.22,0,0,1,387.88,202.9Zm0-4.32a1.08,1.08,0,1,0,1.06,1.08A1.07,1.07,0,0,0,387.88,198.58Z"/>
                    <path class="cls-13"
                          d="M347.42,219.11a3.24,3.24,0,1,1,3.19-3.24A3.22,3.22,0,0,1,347.42,219.11Zm0-4.32a1.08,1.08,0,1,0,1.06,1.08A1.07,1.07,0,0,0,347.42,214.79Z"/>
                    <path class="cls-13"
                          d="M394.26,212.62a3.24,3.24,0,1,1,3.19-3.24A3.22,3.22,0,0,1,394.26,212.62Zm0-4.32a1.08,1.08,0,1,0,1.06,1.08A1.07,1.07,0,0,0,394.26,208.3Z"/>
                    <path class="cls-13"
                          d="M381.49,216.95a3.24,3.24,0,1,1,3.19-3.24A3.22,3.22,0,0,1,381.49,216.95Zm0-4.32a1.08,1.08,0,1,0,1.06,1.08A1.07,1.07,0,0,0,381.49,212.62Z"/>
                </g>
                <polyline class="cls-16" points="396.37 115.45 405.87 127.95 469.87 127.95"/>
                <path class="cls-13"
                      d="M390.47,108.76a6.53,6.53,0,0,0,8.07,7.6,6.46,6.46,0,0,0,4.71-5,6.53,6.53,0,0,0-8.07-7.6A6.46,6.46,0,0,0,390.47,108.76Z"/>
                <text class="cls-17" transform="translate(411.3 116.69)">Connect</text>
            </g>
            <g id="define">
                <g id="defineCircle" class="wf-ani  animated">
                    <path class="cls-21" d="M220.32,148.6q-1.72-.39-3.39-.88"/>
                    <path class="cls-23" d="M210.33,145.32a55.93,55.93,0,1,1,16.92,4.41"/>
                    <path class="cls-21" d="M223.75,149.27q-1.72-.28-3.44-.67"/>
                    <rect id="bg1" class="cls-12" x="191.3" y="50.69" width="85" height="85" rx="42.5" ry="42.5"/>
                    <path class="cls-13" d="M253.91,83.3a7.59,7.59,0,1,1,7.4-7.58A7.5,7.5,0,0,1,253.91,83.3Z"/>
                    <path class="cls-13" d="M253.91,117a7.59,7.59,0,1,1,7.4-7.58A7.5,7.5,0,0,1,253.91,117Z"/>
                    <path class="cls-13" d="M253.91,100.15a7.59,7.59,0,1,1,7.4-7.58A7.5,7.5,0,0,1,253.91,100.15Z"/>
                    <rect class="cls-14" x="249.8" y="73.19" width="8.22" height="1.69"/>
                    <rect class="cls-14" x="256.37" y="76.56" width="1.64" height="1.69"/>
                    <rect class="cls-14" x="249.8" y="76.56" width="4.93" height="1.69"/>
                    <rect class="cls-14" x="249.8" y="90.04" width="8.22" height="1.69"/>
                    <rect class="cls-14" x="256.37" y="93.41" width="1.64" height="1.69"/>
                    <rect class="cls-14" x="249.8" y="93.41" width="4.93" height="1.69"/>
                    <rect class="cls-14" x="249.8" y="106.89" width="8.22" height="1.69"/>
                    <rect class="cls-14" x="256.37" y="110.26" width="1.64" height="1.69"/>
                    <rect class="cls-14" x="249.8" y="110.26" width="4.93" height="1.69"/>
                    <path class="cls-14"
                          d="M248.15,76.56V74.87h-4.93V66.45H210.34v52.24h32.88v-8.43h4.93v-1.69h-4.93V93.41h4.93V91.72h-4.93V76.56ZM241.58,117H212V74.87h29.59Zm0-43.82H212V68.13h29.59Z"/>
                    <rect class="cls-14" x="213.63" y="69.82" width="1.64" height="1.69"/>
                    <rect class="cls-14" x="216.92" y="69.82" width="1.64" height="1.69"/>
                    <rect class="cls-14" x="220.21" y="69.82" width="1.64" height="1.69"/>
                    <rect class="cls-13" x="213.63" y="76.56" width="26.3" height="21.91"/>
                    <rect class="cls-14" x="213.63" y="100.15" width="26.3" height="1.69"/>
                    <rect class="cls-14" x="216.92" y="103.52" width="23.01" height="1.69"/>
                    <rect class="cls-14" x="213.63" y="103.52" width="1.64" height="1.69"/>
                    <rect class="cls-14" x="213.63" y="106.89" width="26.3" height="1.69"/>
                    <rect class="cls-14" x="213.63" y="110.26" width="26.3" height="1.69"/>
                    <rect class="cls-14" x="238.29" y="113.63" width="1.64" height="1.69"/>
                    <rect class="cls-14" x="213.63" y="113.63" width="23.01" height="1.69"/>
                    <polygon class="cls-14"
                             points="221.18 93.9 216.73 87.51 221.18 81.12 222.52 82.1 218.75 87.51 222.52 92.92 221.18 93.9"/>
                    <polygon class="cls-14"
                             points="232.38 93.9 231.04 92.92 234.81 87.51 231.04 82.1 232.38 81.12 236.83 87.51 232.38 93.9"/>
                    <polygon class="cls-14" points="230 81.94 225.07 93.74 223.56 93.07 228.49 81.28 230 81.94"/>
                </g>
                <polyline class="cls-16" points="223.84 12.45 233.34 24.95 297.34 24.95"/>
                <path class="cls-13"
                      d="M217.94,5.76a6.53,6.53,0,0,0,8.07,7.6,6.46,6.46,0,0,0,4.71-5,6.53,6.53,0,0,0-8.07-7.6A6.46,6.46,0,0,0,217.94,5.76Z"/>
                <text class="cls-17" transform="translate(238.78 13.69)">Define</text>
            </g>
            <g id="process">
                <g id="processCircle" class="wf-ani  animated">
                    <circle class="cls-24" cx="329.08" cy="356.75" r="55.92"
                            transform="translate(-99.81 583.94) rotate(-75.22)"/>
                    <rect id="bg3" class="cls-12" x="286.3" y="314.69" width="85" height="85" rx="42.5" ry="42.5"/>
                    <path class="cls-13"
                          d="M328.73,376.6a19.48,19.48,0,1,1,19.44-19.48A19.48,19.48,0,0,1,328.73,376.6Zm0-35.41a15.93,15.93,0,1,0,15.91,15.93A15.94,15.94,0,0,0,328.73,341.2Z"/>
                    <path class="cls-14"
                          d="M351.7,357.13a23.37,23.37,0,0,0-.17-2.77l4.61-1.5-2.73-8.42-4.61,1.5a23.06,23.06,0,0,0-3.25-4.48l2.85-3.93-7.15-5.2-2.85,3.93a22.82,22.82,0,0,0-5.26-1.71v-4.85h-8.84v4.85a22.78,22.78,0,0,0-5.26,1.71l-2.85-3.93-7.15,5.2,2.85,3.93a23,23,0,0,0-3.25,4.48l-4.61-1.5-2.73,8.42,4.61,1.5a23.25,23.25,0,0,0,0,5.54l-4.61,1.5,2.73,8.42,4.61-1.5a23.06,23.06,0,0,0,3.25,4.48L309,376.73l7.15,5.2L319,378a22.82,22.82,0,0,0,5.26,1.71v4.85h8.84v-4.85A22.78,22.78,0,0,0,338.4,378l2.85,3.93,7.15-5.2-2.85-3.93a23,23,0,0,0,3.25-4.48l4.61,1.5,2.73-8.42-4.61-1.5A23,23,0,0,0,351.7,357.13Zm2.22,5.41-1.64,5.05-4.35-1.42-.34.67a21.3,21.3,0,0,1-3.81,5.26l-.53.53,2.69,3.71-4.29,3.12L339,375.75l-.67.34a21,21,0,0,1-6.17,2l-.74.12v4.58h-5.3v-4.58l-.74-.12a21,21,0,0,1-6.17-2l-.67-.34-2.69,3.71-4.29-3.12,2.69-3.71-.53-.53a21.26,21.26,0,0,1-3.81-5.26l-.34-.67-4.35,1.42-1.64-5.05,4.34-1.41-.11-.74a21.52,21.52,0,0,1,0-6.5l.11-.74-4.34-1.41,1.64-5.05,4.35,1.42.34-.67a21.3,21.3,0,0,1,3.81-5.26l.53-.53-2.69-3.71,4.29-3.12,2.69,3.71.67-.34a21,21,0,0,1,6.17-2l.74-.12v-4.58h5.3V336l.74.12a21,21,0,0,1,6.17,2l.67.34,2.69-3.71,4.29,3.12-2.69,3.71.53.53a21.26,21.26,0,0,1,3.81,5.26l.34.67,4.35-1.42,1.64,5.05-4.35,1.41.11.74a21.48,21.48,0,0,1,0,6.5l-.11.74Z"/>
                    <path class="cls-14"
                          d="M335.17,346.57l-2.55,1.68,1,1.48L337.7,347l-.6-5-1.76.21.31,2.6a14.13,14.13,0,0,0-18.16,20.9l1.4-1.08a12.37,12.37,0,0,1,16.27-18.07Z"/>
                    <path class="cls-14"
                          d="M338.55,349.62a12.37,12.37,0,0,1-16.27,18.07l2.56-1.68-1-1.48-4.11,2.71.6,5,1.76-.21-.31-2.6A14.13,14.13,0,0,0,340,348.55Z"/>
                </g>
                <polyline class="cls-16" points="342.84 432.45 352.34 444.95 416.34 444.95"/>
                <path class="cls-13"
                      d="M336.94,425.76a6.53,6.53,0,0,0,8.07,7.6,6.46,6.46,0,0,0,4.71-5,6.53,6.53,0,0,0-8.07-7.6A6.46,6.46,0,0,0,336.94,425.76Z"/>
                <text class="cls-17" transform="translate(357.78 433.69)">P
                    <tspan class="cls-25" x="10.23" y="0">r</tspan>
                    <tspan x="15.57" y="0">ocess</tspan>
                </text>
            </g>
        </g>
    </g>
</svg>